<?xml version="1.0"?><svg xmlns="http://www.w3.org/2000/svg" viewBox="0 0 100 100"><path d="M85.119 42.107C85.119 24.375 70.744 10 53.012 10S20.905 24.375 20.905 42.107v9.097l-5.745 9.438c-.766 1.258.14 2.87 1.613 2.87h4.132v13.734a3.26 3.26 0 0 0 4.151 3.137l11.367-3.226V90h36.923V66.952c7.186-5.888 11.773-14.83 11.773-24.845z" fill="none" stroke="#323232" stroke-width="3" stroke-linecap="round" stroke-linejoin="round" stroke-miterlimit="10"/><path d="M50.182 27.636C40.14 27.636 32 35.777 32 45.818S40.14 64 50.182 64s18.182-8.14 18.182-18.182H50.182V27.636z" fill="none" stroke="#76a4bd" stroke-width="3" stroke-linecap="round" stroke-linejoin="round" stroke-miterlimit="10"/><path d="M55.818 22v18.182H74C74 30.14 65.86 22 55.818 22z" fill="none" stroke="#e15c64" stroke-width="3" stroke-linecap="round" stroke-linejoin="round" stroke-miterlimit="10"/><metadata xmlns:d="https://loading.io/stock/">
<d:name>plan</d:name>
<d:tags>plan,design,time sharing,blueprint,brainstorming,think,thought,draft</d:tags>
<d:license>by</d:license>
<d:slug>6n9tuk</d:slug>
</metadata></svg>